<?xml version="1.0" encoding="UTF-8" standalone="no"?>
<svg
   xmlns:dc="http://purl.org/dc/elements/1.1/"
   xmlns:cc="http://creativecommons.org/ns#"
   xmlns:rdf="http://www.w3.org/1999/02/22-rdf-syntax-ns#"
   xmlns:svg="http://www.w3.org/2000/svg"
   xmlns="http://www.w3.org/2000/svg"
   xmlns:sodipodi="http://sodipodi.sourceforge.net/DTD/sodipodi-0.dtd"
   xmlns:inkscape="http://www.inkscape.org/namespaces/inkscape"
   version="1.1"
   viewBox="0 0 199.64 214.65"
   id="svg26"
   sodipodi:docname="ThumbDown-1294983.svg"
   inkscape:version="0.92.5 (2060ec1f9f, 2020-04-08)">
  <metadata
     id="metadata32">
    <rdf:RDF>
      <cc:Work
         rdf:about="">
        <dc:format>image/svg+xml</dc:format>
        <dc:type
           rdf:resource="http://purl.org/dc/dcmitype/StillImage" />
        <dc:title />
      </cc:Work>
    </rdf:RDF>
  </metadata>
  <defs
     id="defs30" />
  <sodipodi:namedview
     pagecolor="#ffffff"
     bordercolor="#666666"
     borderopacity="1"
     objecttolerance="10"
     gridtolerance="10"
     guidetolerance="10"
     inkscape:pageopacity="0"
     inkscape:pageshadow="2"
     inkscape:window-width="1920"
     inkscape:window-height="1176"
     id="namedview28"
     showgrid="false"
     inkscape:zoom="3.1097546"
     inkscape:cx="26.018134"
     inkscape:cy="140.8885"
     inkscape:window-x="1920"
     inkscape:window-y="0"
     inkscape:window-maximized="1"
     inkscape:current-layer="svg26" />
  <g
     id="g4554"
     transform="rotate(165,99.819361,107.32023)">
    <g
       id="g24"
       transform="translate(-205.46,-291.41)">
      <path
         id="path2"
         d="m 229.74,459.29 -7.9423,-5.4072 -2.7208,-7.2751 c -5.6267,-15.045 -6.0547,-38.399 -1.147,-62.585 1.478,-7.2838 2.6919,-13.567 2.6976,-13.963 0.006,-0.39604 0.90578,0.003 2.0001,0.88783 2.873,2.3216 10.134,5.3638 16.052,6.7251 2.8174,0.64812 5.309,1.3426 5.5368,1.5433 0.22781,0.2007 -0.80364,2.4901 -2.2921,5.0876 -3.0929,5.3973 -7.3527,18.01 -8.9826,26.596 -2.5157,13.251 -0.77972,37.183 3.5304,48.67 0.96079,2.5606 1.6261,4.762 1.4785,4.8921 -0.1476,0.1301 -3.8424,-2.1968 -8.2107,-5.1707 z"
         inkscape:connector-curvature="0"
         style="fill:#008080" />
      <path
         id="path4"
         d="m 128.64,204.93 c -21.334,-1.6696 -43.619,-7.1888 -61.985,-15.352 -9.5485,-4.2438 -23.597,-11.757 -25.048,-13.395 -1.5234,-1.7205 -4.5188,-11.823 -5.5507,-18.721 -0.51494,-3.4421 -0.88713,-12.439 -0.86954,-21.018 0.02973,-14.504 0.95094,-23.637 4.3588,-43.214 l 0.55952,-3.2143 5.696,-0.47822 c 15.847,-1.3305 29.286,-11.03 36.672,-26.47 1.9306,-4.0356 4.0466,-9.1052 4.7023,-11.266 1.8236,-6.0093 2.1685,-15.682 0.82779,-23.214 -1.5259,-8.5733 -1.4613,-12.336 0.26032,-15.159 3.6223,-5.9409 12.289,-3.2297 19.413,6.0728 5.7764,7.5432 7.7497,14.712 7.7497,28.154 0,18.034 -3.5314,30.357 -12.389,43.233 -2.2218,3.2299 -4.0397,6.2031 -4.0397,6.6071 0,1.2236 2.1495,0.82718 4.4683,-0.82399 2.3527,-1.6752 9.7794,-2.7894 25.236,-3.786 16.154,-1.0415 41.828,3.5052 51.68,9.1526 6.8863,3.9471 10.706,8.6899 10.74,13.335 0.0319,4.3849 -4.9627,8.5714 -10.226,8.5714 -4.3981,0 -4.0011,2.3048 0.67291,3.9062 3.9742,1.3616 6.9367,6.3092 7.2689,12.14 0.31524,5.5322 -1.1818,8.3949 -6.2623,11.975 -6.0039,4.231 -6.1174,4.5878 -3.2058,10.074 3.9929,7.5242 3.2601,13.178 -2.253,17.383 -2.196,1.675 -3.491,2.0388 -8.3936,2.3584 -5.1528,0.33586 -5.8203,0.54056 -6.0066,1.842 -0.13359,0.93362 0.68592,2.279 2.2615,3.7128 1.359,1.2367 2.6892,2.9361 2.9559,3.7765 1.5024,4.7336 -2.7188,10.529 -9.1095,12.508 -3.749,1.1604 -21.986,1.9524 -30.184,1.3109 z"
         transform="translate(205.46,291.41)"
         inkscape:connector-curvature="0"
         style="fill:#ffffff" />
      <path
         id="path6"
         d="m 281.34007,476.93285 c -9.5485,-4.2438 -37.41523,-17.10105 -38.86623,-18.73905 -17.939,-23.15 2.61223,-63.34095 2.31613,-80.82395 l 15.696,-0.47822 c 15.896,-0.4843 16.6333,-13.00785 24.0193,-28.44785 0,0 4.0466,-9.1052 4.7023,-11.266 1.8236,-6.0093 2.1685,-15.682 0.82778,-23.214 -1.5259,-8.5733 -1.4613,-12.336 0.26033,-15.159 3.6223,-5.9409 12.289,-3.2297 19.413,6.0728 5.7764,7.5432 11.9921,16.91029 11.9921,30.35229 0,18.034 -0.70259,32.24775 -9.56049,45.12375 -17.411,16.195 9.40129,-1.34234 18.59329,-2.09084 16.154,-1.0415 54.4807,5.48305 64.3327,11.13045 6.8863,3.9471 7.31868,14.96211 7.35268,19.60721 -7.81025,7.86808 -8.3021,9.18426 1.10312,18.34479 0.31523,5.5322 -1.1818,8.3949 -6.2623,11.975 -6.0039,4.231 -8.82188,6.33489 -5.91028,11.82109 3.9929,7.5242 5.96458,11.43091 0.45148,15.63591 -2.196,1.675 -3.29713,5.26871 -8.19973,5.58831 -3.745,5.5548 -12.27066,1.9753 -12.45686,3.27675 -0.13359,0.93362 6.9424,-2.38566 8.51799,-0.95186 1.359,1.2367 -4.02179,5.13977 -3.75509,5.98017 -1.37999,10.26659 -0.57581,11.84851 -5.95671,14.12262 -38.85008,-0.26185 -65.40508,-7.75451 -88.61051,-17.86037 z"
         inkscape:connector-curvature="0"
         style="fill:#ffd8f8;fill-opacity:1"
         sodipodi:nodetypes="cccscccccsccccccccccsccc" />
      <path
         id="path8"
         d="m 308.29,385.62 c -0.23384,-0.64917 1.2313,-1.914 4.2246,-3.4569 2.9933,-1.5429 7.529,-3.3461 13.375,-4.8015 5.8463,-1.4554 13.01,-2.5467 21.029,-2.656 8.0188,-0.10927 16.888,0.77674 25.89,3.0606 2.8409,0.72075 5.6087,1.5569 8.2849,2.4922 4.6103,1.5772 9.1996,3.665 13.209,6.5707 2.2529,1.6158 4.2498,3.5508 5.8784,5.6924 1.6286,2.1416 2.889,4.4893 3.7289,6.9336 0.5568,1.6566 0.88355,3.4142 0.93742,5.1908 0.069,2.9628 -0.7166,5.6824 -1.9919,7.9128 -1.4728,2.5658 -3.5318,4.3931 -5.6426,5.54 -2.6611,1.4408 -5.298,1.7734 -7.3988,1.5956 -2.3943,-0.20535 -4.0645,-1.0321 -5.0419,-1.7601 -0.97742,-0.72801 -1.2942,-1.3606 -1.1167,-1.7028 0.1775,-0.3422 0.83583,-0.39265 1.8641,-0.41181 1.0283,-0.0192 2.4603,-0.0167 4.0742,-0.42737 1.4163,-0.35793 3.0149,-1.058 4.3668,-2.2503 1.0753,-0.94365 2.0311,-2.2353 2.5692,-3.7221 0.47129,-1.2894 0.65162,-2.7918 0.41697,-4.2287 -0.12917,-0.87584 -0.44459,-1.813 -0.8775,-2.7948 -0.62406,-1.4584 -1.5764,-2.8621 -2.7991,-4.1819 -1.2227,-1.3198 -2.7155,-2.556 -4.3654,-3.6711 -3.0157,-2.0101 -6.7954,-3.4805 -10.997,-4.8926 -2.4486,-0.80309 -4.9717,-1.5382 -7.5572,-2.1942 -8.1929,-2.0786 -16.232,-3.1512 -23.597,-3.536 -7.3648,-0.38489 -14.053,-0.0881 -19.677,0.41035 -5.6246,0.49841 -10.193,1.1872 -13.422,1.5517 -3.229,0.3645 -5.131,0.38659 -5.3648,-0.26258 z"
         inkscape:connector-curvature="0"
         style="fill-rule:evenodd" />
      <path
         id="path10"
         d="m 390.46,419.25 c 0.14813,-0.41545 0.52556,-0.7415 1.1415,-0.92764 0.61594,-0.18615 1.4716,-0.23026 2.5136,-0.0389 1.042,0.19137 2.2707,0.62116 3.558,1.3869 1.2873,0.76574 2.632,1.8703 3.8351,3.3709 1.166,1.4641 2.168,3.2704 2.8128,5.3377 0.64475,2.0673 0.92929,4.395 0.69665,6.8099 -0.0771,0.76986 -0.20556,1.5399 -0.38611,2.3027 -0.88145,3.724 -2.941,6.8842 -5.4314,9.0616 -2.0234,1.7562 -4.2425,2.8226 -6.2741,3.3591 -2.0316,0.5365 -3.8733,0.55173 -5.3172,0.30081 -1.3388,-0.23615 -2.3301,-0.6919 -2.9545,-1.1869 -0.62437,-0.49495 -0.88555,-1.0268 -0.82585,-1.5276 0.0597,-0.5008 0.4302,-0.9402 0.98869,-1.3686 0.5585,-0.42845 1.3079,-0.85034 2.1444,-1.3458 h 10e-6 c 0.89109,-0.52931 1.8892,-1.154 2.8802,-1.9369 0.99097,-0.78294 1.9776,-1.7229 2.7883,-2.8198 1.0096,-1.3464 1.8405,-3.0282 2.2736,-4.844 0.0887,-0.37193 0.15848,-0.74195 0.209,-1.1078 0.33516,-2.292 -0.0384,-4.6494 -0.73982,-6.5789 -0.70962,-1.9887 -1.8411,-3.6732 -2.7098,-5.0153 -0.86873,-1.3421 -1.4991,-2.4005 -1.2029,-3.2314 z"
         inkscape:connector-curvature="0"
         style="fill-rule:evenodd" />
      <path
         id="path12"
         d="m 382.93,448.51 c 0.15105,-0.41438 0.58207,-0.72193 1.2993,-0.85475 0.71726,-0.13283 1.7226,-0.0874 2.9335,0.26295 1.2108,0.35037 2.6278,1.0103 4.0598,2.1028 1.432,1.0925 2.8774,2.622 4.0418,4.6406 1.1222,1.9702 1.9347,4.3412 2.1924,6.943 0.25769,2.6018 -0.0434,5.4326 -1.0722,8.1918 -0.33385,0.87849 -0.73616,1.7359 -1.2043,2.5616 -1.1417,2.0137 -2.6227,3.7418 -4.2895,5.1219 -1.6668,1.3801 -3.5182,2.4124 -5.405,3.0933 -3.0632,1.0851 -6.0486,1.1918 -8.5431,0.75745 -2.4945,-0.43435 -4.5012,-1.3975 -5.9165,-2.4381 -1.3078,-0.96876 -2.1075,-1.9846 -2.5001,-2.811 -0.3926,-0.8264 -0.38513,-1.4637 -0.0696,-1.8573 0.31557,-0.39363 0.91442,-0.52524 1.7114,-0.53534 0.79699,-0.0101 1.7998,0.0985 2.9557,0.15275 1.2278,0.0569 2.6505,0.0387 4.1661,-0.21495 1.5156,-0.2537 3.1275,-0.73967 4.5658,-1.5728 1.7856,-1.0071 3.496,-2.6397 4.6338,-4.6339 0.23326,-0.40883 0.43679,-0.82435 0.60823,-1.2426 0.55433,-1.3037 0.8351,-2.7328 0.90114,-4.1183 0.0661,-1.3855 -0.0845,-2.7259 -0.39849,-3.9304 -0.31086,-1.2425 -0.81736,-2.3993 -1.3717,-3.4252 -0.55437,-1.0259 -1.1583,-1.9219 -1.6969,-2.6976 -0.5386,-0.7757 -1.0133,-1.4344 -1.3168,-2.0097 -0.30352,-0.57527 -0.43572,-1.0719 -0.28467,-1.4863 z"
         inkscape:connector-curvature="0"
         style="fill-rule:evenodd" />
      <path
         id="path14"
         d="m 289.18,340.93 c 0.6093,0.14013 0.99162,1.2769 0.96641,3.2795 -0.0252,2.0026 -0.47585,4.8753 -1.6935,8.2794 -1.2176,3.404 -3.2182,7.3383 -6.244,11.228 -3.0258,3.8893 -7.0859,7.7241 -12.132,10.772 -2.0879,1.2563 -4.3266,2.3718 -6.6832,3.3082 -3.4431,1.3681 -6.956,2.2801 -10.381,2.778 -3.4251,0.49793 -6.7616,0.58253 -9.8831,0.34039 -4.1276,-0.32339 -7.845,-1.2122 -10.998,-2.3522 -3.1534,-1.14 -5.7451,-2.527 -7.7385,-3.8706 -1.9934,-1.3436 -3.393,-2.6404 -4.2254,-3.6772 -0.8324,-1.0368 -1.1027,-1.811 -0.82592,-2.2282 0.27678,-0.4172 1.0787,-0.45255 2.3171,-0.23631 1.2384,0.21623 2.9181,0.68041 4.9967,1.202 2.0787,0.52158 4.5603,1.0987 7.3816,1.5207 2.8213,0.42193 5.9837,0.68768 9.3609,0.58648 5.1078,-0.14822 10.771,-1.1604 16.305,-3.3569 1.894,-0.75167 3.7026,-1.6124 5.4073,-2.5603 h 1e-5 c 4.1036,-2.2696 7.6226,-5.0952 10.523,-7.9795 2.9003,-2.8843 5.1825,-5.8254 6.9737,-8.4111 1.7912,-2.5857 3.1014,-4.819 4.1401,-6.3626 1.0387,-1.5436 1.8239,-2.3997 2.4332,-2.2596 z"
         inkscape:connector-curvature="0"
         style="fill-rule:evenodd" />
      <path
         id="path16"
         d="m 369.35,475.75 c 0.10178,-0.30049 0.79164,-0.44772 2.0211,-0.13231 0.61471,0.1577 1.3595,0.43977 2.1769,0.92021 0.8174,0.48044 1.7088,1.1605 2.5573,2.1172 0.73451,0.83116 1.426,1.8615 1.9648,3.0956 0.53881,1.2342 0.92513,2.6732 1.0161,4.2765 0.13248,2.7635 -0.59652,5.8688 -2.4244,8.6476 -1.5504,2.3591 -3.754,4.4664 -6.4263,6.0301 h -10e-6 c -2.2966,1.317 -4.8268,2.3055 -7.4793,3.0098 -2.6525,0.7043 -5.4274,1.1238 -8.1592,1.3934 h -1e-5 c -8.2741,0.93912 -17.535,1.253 -27.399,0.58819 -9.8635,-0.66479 -20.327,-2.3119 -30.899,-5.12 -7.3475,-1.9516 -14.372,-4.36 -20.957,-7.0874 h -10e-6 c -10.687,-4.4207 -20.216,-9.6916 -28.301,-15.108 -8.085,-5.4164 -14.729,-10.969 -19.897,-15.941 -5.168,-4.972 -8.8721,-9.3526 -11.192,-12.538 -2.3199,-3.1854 -3.2718,-5.1656 -2.8253,-5.5632 0.4465,-0.3976 2.252,0.81512 5.2821,3.2061 3.03,2.391 7.3008,5.9514 12.826,10.096 5.5254,4.1442 12.317,8.8661 20.322,13.536 8.005,4.6699 17.227,9.2814 27.425,13.247 h 1e-5 c 6.2856,2.4405 12.945,4.6394 19.885,6.4832 9.9863,2.6532 19.822,4.3696 29.119,5.2972 9.297,0.9276 18.054,1.0682 25.958,0.7185 h 10e-6 c 2.5941,-0.15475 5.0159,-0.30923 7.1977,-0.65275 2.1818,-0.34352 4.124,-0.8757 5.8067,-1.6927 h 10e-6 c 1.9574,-0.91917 3.6143,-2.1045 4.7764,-3.4838 1.3484,-1.5989 2.1706,-3.4423 2.3647,-5.1351 0.12661,-0.97593 0.0669,-1.9435 -0.10867,-2.8299 -0.1756,-0.88644 -0.46737,-1.6928 -0.81659,-2.3952 -0.80133,-1.6219 -1.8969,-2.7234 -2.6689,-3.4774 -0.772,-0.754 -1.2477,-1.2051 -1.146,-1.5056 z"
         inkscape:connector-curvature="0"
         style="fill-rule:evenodd" />
      <path
         id="path18"
         d="m 244.79,377.37 c 0.63775,0.2634 0.71148,1.7655 0.41225,4.2462 -0.29923,2.4807 -0.96316,5.9452 -1.7164,10.187 -0.75321,4.2418 -1.5904,9.2642 -2.2525,14.85 -0.66206,5.5853 -1.1458,11.734 -1.2709,18.192 -0.1449,7.4831 0.21327,14.559 0.81212,20.834 0.29866,3.0643 0.62815,5.8314 1.1144,8.2924 0.96406,4.9492 2.521,8.9421 3.6133,11.8 1.0923,2.8581 1.7002,4.6402 1.0972,5.1432 -0.30149,0.25146 -0.88277,0.16048 -1.6997,-0.28615 -0.81696,-0.44662 -1.8691,-1.2508 -3.0535,-2.4461 -1.1844,-1.1953 -2.5004,-2.7837 -3.7955,-4.7878 -1.2951,-2.0041 -2.5681,-4.4256 -3.6296,-7.2469 -1.0479,-2.8027 -1.864,-5.9124 -2.5047,-9.1482 -1.3256,-6.6314 -2.1077,-14.272 -1.9524,-22.348 0.13408,-6.9706 0.94867,-13.591 2.1767,-19.495 1.2281,-5.9047 2.8635,-11.094 4.5528,-15.314 1.6893,-4.2205 3.4251,-7.4761 4.8695,-9.6035 1.4443,-2.1274 2.5892,-3.1327 3.2269,-2.8693 z"
         inkscape:connector-curvature="0"
         style="fill-rule:evenodd" />
      <path
         id="path20"
         d="m 220.32,368.71 c 0.62567,0.29093 0.68622,1.6818 0.37779,3.9376 -0.30843,2.2558 -0.9776,5.3823 -1.7316,9.2038 -0.75399,3.8214 -1.5878,8.3413 -2.244,13.37 -0.65618,5.0287 -1.1319,10.566 -1.2466,16.383 -0.13087,6.6409 0.22852,12.924 0.83135,18.51 0.30302,2.7444 0.63159,5.2117 1.1062,7.3983 0.95584,4.4781 2.4957,8.0881 3.5837,10.688 1.088,2.5995 1.7089,4.2511 1.1326,4.7955 -0.28814,0.2722 -0.85441,0.24328 -1.6592,-0.10744 -0.80482,-0.35071 -1.8478,-1.0253 -3.0296,-2.0672 -1.1818,-1.0419 -2.5017,-2.4535 -3.8073,-4.2676 -1.3056,-1.8141 -2.5958,-4.0326 -3.6764,-6.6461 -1.0462,-2.5483 -1.8692,-5.3796 -2.5129,-8.316 -1.3253,-5.9842 -2.1089,-12.89 -1.9668,-20.183 0.12448,-6.3881 0.94222,-12.451 2.1782,-17.835 1.236,-5.3842 2.8835,-10.089 4.5813,-13.888 1.6977,-3.7984 3.438,-6.694 4.8799,-8.5595 1.442,-1.8655 2.5777,-2.7075 3.2034,-2.4166 z"
         inkscape:connector-curvature="0"
         style="fill-rule:evenodd" />
      <path
         id="path22"
         d="m 280.82,360.79 c -0.32843,-0.25321 -0.0544,-1.2292 0.5943,-2.8732 0.6487,-1.644 1.6662,-3.969 2.6627,-6.9935 0.99648,-3.0245 1.969,-6.7616 2.429,-11.098 0.46,-4.3364 0.406,-9.2799 -0.71638,-14.421 -0.40212,-1.8438 -0.96716,-3.8268 -1.5188,-6.0132 -0.55167,-2.1864 -1.09,-4.5766 -1.3714,-7.2424 -0.25937,-2.4868 -0.17784,-5.2075 0.5074,-8.0404 0.65823,-2.7497 2.0478,-5.4947 4.2925,-7.8356 2.2006,-2.1929 4.9503,-3.7023 7.9201,-4.3809 2.8729,-0.65472 5.8181,-0.63145 8.6009,0.006 5.3419,1.2998 9.9036,4.2801 13.386,7.8972 0.69946,0.70434 1.3752,1.4336 2.0261,2.1862 5.2218,6.0378 8.5477,13.242 10.061,20.454 1.1495,5.5297 1.3292,10.857 1.1445,15.796 -0.14888,5.4568 -0.7919,10.723 -1.839,15.583 -1.0471,4.86 -2.497,9.3128 -4.1963,13.243 -1.6994,3.9303 -3.6464,7.339 -5.6477,10.201 -2.0013,2.862 -4.0548,5.1802 -5.9578,6.996 -2.3791,2.2502 -4.4825,3.7012 -6.0061,4.533 -1.5236,0.83183 -2.4689,1.0529 -2.7163,0.73802 -0.2474,-0.31488 0.21313,-1.148 1.1886,-2.4924 0.97547,-1.3444 2.4656,-3.2094 4.1545,-5.6866 1.3654,-1.9823 2.842,-4.3527 4.2543,-7.1525 1.4124,-2.7998 2.7588,-6.0313 3.8955,-9.6908 1.1367,-3.6595 2.0628,-7.7485 2.6864,-12.188 0.62365,-4.4398 0.94466,-9.231 0.93247,-14.205 -0.0606,-4.5358 -0.34435,-9.1416 -1.4129,-13.55 -1.3712,-5.7141 -4.0601,-11.396 -8.0911,-16.037 -0.50245,-0.57849 -1.0223,-1.1367 -1.5589,-1.6733 -2.7335,-2.6238 -5.6045,-4.7478 -8.5104,-5.3416 -1.4815,-0.34179 -2.9671,-0.42209 -4.2556,-0.1377 -1.3066,0.28646 -2.5359,0.86208 -3.3589,1.6651 -0.917,0.79185 -1.5895,2.0852 -2.0501,3.4849 -0.47722,1.478 -0.58175,3.1979 -0.53204,4.984 0.051,1.9296 0.4022,3.9456 0.79854,6.0391 0.39634,2.0936 0.83779,4.2645 1.136,6.4921 v 10e-6 c 0.84101,6.2735 0.31984,12.041 -0.8232,16.909 -1.143,4.8685 -2.9024,8.8475 -4.6635,11.885 -1.7612,3.0371 -3.5201,5.146 -4.8598,6.4371 -1.3397,1.2911 -2.2568,1.7775 -2.5853,1.5243 z"
         inkscape:connector-curvature="0"
         style="fill-rule:evenodd" />
    </g>
  </g>
</svg>
